<?xml version="1.0" encoding="utf-8" standalone="no"?>
<!DOCTYPE svg PUBLIC "-//W3C//DTD SVG 1.1//EN"
  "http://www.w3.org/Graphics/SVG/1.1/DTD/svg11.dtd">
<!-- Created with matplotlib (http://matplotlib.org/) -->
<svg height="157.3pt" version="1.1" viewBox="0 0 272.5 157.3" width="272.5pt" xmlns="http://www.w3.org/2000/svg" xmlns:xlink="http://www.w3.org/1999/xlink">
 <defs>
  <style type="text/css">
*{stroke-linecap:butt;stroke-linejoin:round;}
  </style>
 </defs>
 <g id="figure_1">
  <g id="patch_1">
   <path d="M 0 157.3 
L 272.5 157.3 
L 272.5 0 
L 0 0 
z
" style="fill:none;"/>
  </g>
  <g id="patch_2">
   <path d="M 10.7 146.6 
L 261.8 146.6 
L 261.8 10.7 
L 10.7 10.7 
z
" style="fill:#ffffff;"/>
  </g>
  <g id="pane3d_1">
   <g id="patch_3">
    <path d="M 43.987185 116.570889 
L 115.853319 83.251289 
L 114.656824 19.583 
L 38.783682 49.519976 
" style="fill:#f2f2f2;opacity:0.5;stroke:#f2f2f2;stroke-linejoin:miter;"/>
   </g>
  </g>
  <g id="pane3d_2">
   <g id="patch_4">
    <path d="M 115.853319 83.251289 
L 232.269699 101.879096 
L 237.140421 36.290916 
L 114.656824 19.583 
" style="fill:#e6e6e6;opacity:0.5;stroke:#e6e6e6;stroke-linejoin:miter;"/>
   </g>
  </g>
  <g id="pane3d_3">
   <g id="patch_5">
    <path d="M 43.987185 116.570889 
L 166.472947 138.266006 
L 232.269699 101.879096 
L 115.853319 83.251289 
" style="fill:#ececec;opacity:0.5;stroke:#ececec;stroke-linejoin:miter;"/>
   </g>
  </g>
  <g id="axis3d_1">
   <g id="line2d_1">
    <path d="M 43.987185 116.570889 
L 166.472947 138.266006 
" style="fill:none;stroke:#000000;stroke-linecap:square;stroke-width:0.8;"/>
   </g>
   <g id="text_1">
    <!-- x -->
    <defs>
     <path d="M 54.890625 54.6875 
L 35.109375 28.078125 
L 55.90625 0 
L 45.3125 0 
L 29.390625 21.484375 
L 13.484375 0 
L 2.875 0 
L 24.125 28.609375 
L 4.6875 54.6875 
L 15.28125 54.6875 
L 29.78125 35.203125 
L 44.28125 54.6875 
z
" id="DejaVuSans-78"/>
    </defs>
    <g transform="translate(82.750785 155.409667)scale(0.1 -0.1)">
     <use xlink:href="#DejaVuSans-78"/>
    </g>
   </g>
   <g id="Line3DCollection_1">
    <path d="M 51.454708 117.893564 
L 122.973198 84.390542 
L 122.132462 20.602748 
" style="fill:none;stroke:#b0b0b0;stroke-width:0.8;"/>
    <path d="M 103.83065 127.170578 
L 172.828996 92.367978 
L 174.535205 27.750975 
" style="fill:none;stroke:#b0b0b0;stroke-width:0.8;"/>
    <path d="M 158.338065 136.825126 
L 224.562087 100.645799 
L 229.014604 35.182478 
" style="fill:none;stroke:#b0b0b0;stroke-width:0.8;"/>
   </g>
   <g id="xtick_1">
    <g id="line2d_2">
     <path d="M 52.070877 117.604918 
L 50.220073 118.471932 
" style="fill:none;stroke:#000000;stroke-linecap:square;stroke-width:0.8;"/>
    </g>
    <g id="text_2">
     <!-- −1 -->
     <defs>
      <path d="M 10.59375 35.5 
L 73.1875 35.5 
L 73.1875 27.203125 
L 10.59375 27.203125 
z
" id="DejaVuSans-2212"/>
      <path d="M 12.40625 8.296875 
L 28.515625 8.296875 
L 28.515625 63.921875 
L 10.984375 60.40625 
L 10.984375 69.390625 
L 28.421875 72.90625 
L 38.28125 72.90625 
L 38.28125 8.296875 
L 54.390625 8.296875 
L 54.390625 0 
L 12.40625 0 
z
" id="DejaVuSans-31"/>
     </defs>
     <g transform="translate(35.785551 136.914626)scale(0.1 -0.1)">
      <use xlink:href="#DejaVuSans-2212"/>
      <use x="83.789062" xlink:href="#DejaVuSans-31"/>
     </g>
    </g>
   </g>
   <g id="xtick_2">
    <g id="line2d_3">
     <path d="M 104.425952 126.870309 
L 102.63778 127.772259 
" style="fill:none;stroke:#000000;stroke-linecap:square;stroke-width:0.8;"/>
    </g>
    <g id="text_3">
     <!-- 0 -->
     <defs>
      <path d="M 31.78125 66.40625 
Q 24.171875 66.40625 20.328125 58.90625 
Q 16.5 51.421875 16.5 36.375 
Q 16.5 21.390625 20.328125 13.890625 
Q 24.171875 6.390625 31.78125 6.390625 
Q 39.453125 6.390625 43.28125 13.890625 
Q 47.125 21.390625 47.125 36.375 
Q 47.125 51.421875 43.28125 58.90625 
Q 39.453125 66.40625 31.78125 66.40625 
z
M 31.78125 74.21875 
Q 44.046875 74.21875 50.515625 64.515625 
Q 56.984375 54.828125 56.984375 36.375 
Q 56.984375 17.96875 50.515625 8.265625 
Q 44.046875 -1.421875 31.78125 -1.421875 
Q 19.53125 -1.421875 13.0625 8.265625 
Q 6.59375 17.96875 6.59375 36.375 
Q 6.59375 54.828125 13.0625 64.515625 
Q 19.53125 74.21875 31.78125 74.21875 
z
" id="DejaVuSans-30"/>
     </defs>
     <g transform="translate(92.343524 146.448134)scale(0.1 -0.1)">
      <use xlink:href="#DejaVuSans-30"/>
     </g>
    </g>
   </g>
   <g id="xtick_3">
    <g id="line2d_4">
     <path d="M 158.910277 136.512517 
L 157.19142 137.451558 
" style="fill:none;stroke:#000000;stroke-linecap:square;stroke-width:0.8;"/>
    </g>
    <g id="text_4">
     <!-- 1 -->
     <g transform="translate(146.849377 156.37081)scale(0.1 -0.1)">
      <use xlink:href="#DejaVuSans-31"/>
     </g>
    </g>
   </g>
  </g>
  <g id="axis3d_2">
   <g id="line2d_5">
    <path d="M 232.269699 101.879096 
L 166.472947 138.266006 
" style="fill:none;stroke:#000000;stroke-linecap:square;stroke-width:0.8;"/>
   </g>
   <g id="text_5">
    <!-- y -->
    <defs>
     <path d="M 32.171875 -5.078125 
Q 28.375 -14.84375 24.75 -17.8125 
Q 21.140625 -20.796875 15.09375 -20.796875 
L 7.90625 -20.796875 
L 7.90625 -13.28125 
L 13.1875 -13.28125 
Q 16.890625 -13.28125 18.9375 -11.515625 
Q 21 -9.765625 23.484375 -3.21875 
L 25.09375 0.875 
L 2.984375 54.6875 
L 12.5 54.6875 
L 29.59375 11.921875 
L 46.6875 54.6875 
L 56.203125 54.6875 
z
" id="DejaVuSans-79"/>
    </defs>
    <g transform="translate(227.803284 143.124581)scale(0.1 -0.1)">
     <use xlink:href="#DejaVuSans-79"/>
    </g>
   </g>
   <g id="Line3DCollection_2">
    <path d="M 43.978971 47.470091 
L 48.890254 114.297659 
L 170.975981 135.775739 
" style="fill:none;stroke:#b0b0b0;stroke-width:0.8;"/>
    <path d="M 78.207339 33.964735 
L 81.25884 99.290474 
L 200.651948 119.36434 
" style="fill:none;stroke:#b0b0b0;stroke-width:0.8;"/>
    <path d="M 110.171251 21.352856 
L 111.589022 85.228363 
L 228.377837 104.031372 
" style="fill:none;stroke:#b0b0b0;stroke-width:0.8;"/>
   </g>
   <g id="xtick_4">
    <g id="line2d_6">
     <path d="M 169.954231 135.595986 
L 173.021765 136.135646 
" style="fill:none;stroke:#000000;stroke-linecap:square;stroke-width:0.8;"/>
    </g>
    <g id="text_6">
     <!-- −1 -->
     <g transform="translate(177.98021 153.369862)scale(0.1 -0.1)">
      <use xlink:href="#DejaVuSans-2212"/>
      <use x="83.789062" xlink:href="#DejaVuSans-31"/>
     </g>
    </g>
   </g>
   <g id="xtick_5">
    <g id="line2d_7">
     <path d="M 199.654229 119.196591 
L 202.649539 119.7002 
" style="fill:none;stroke:#000000;stroke-linecap:square;stroke-width:0.8;"/>
    </g>
    <g id="text_7">
     <!-- 0 -->
     <g transform="translate(211.334516 136.632167)scale(0.1 -0.1)">
      <use xlink:href="#DejaVuSans-30"/>
     </g>
    </g>
   </g>
   <g id="xtick_6">
    <g id="line2d_8">
     <path d="M 227.40325 103.874464 
L 230.329048 104.345517 
" style="fill:none;stroke:#000000;stroke-linecap:square;stroke-width:0.8;"/>
    </g>
    <g id="text_8">
     <!-- 1 -->
     <g transform="translate(238.583983 120.993501)scale(0.1 -0.1)">
      <use xlink:href="#DejaVuSans-31"/>
     </g>
    </g>
   </g>
  </g>
  <g id="axis3d_3">
   <g id="line2d_9">
    <path d="M 232.269699 101.879096 
L 237.140421 36.290916 
" style="fill:none;stroke:#000000;stroke-linecap:square;stroke-width:0.8;"/>
   </g>
   <g id="Line3DCollection_3">
    <path d="M 232.362339 100.631618 
L 115.830513 82.037737 
L 43.888382 115.297743 
" style="fill:none;stroke:#b0b0b0;stroke-width:0.8;"/>
    <path d="M 234.642669 69.925148 
L 115.269747 52.198043 
L 41.454325 83.933148 
" style="fill:none;stroke:#b0b0b0;stroke-width:0.8;"/>
    <path d="M 237.037992 37.670208 
L 114.681932 20.919065 
L 38.893294 50.932407 
" style="fill:none;stroke:#b0b0b0;stroke-width:0.8;"/>
   </g>
   <g id="xtick_7">
    <g id="line2d_10">
     <path d="M 231.390048 100.476479 
L 234.308945 100.94222 
" style="fill:none;stroke:#000000;stroke-linecap:square;stroke-width:0.8;"/>
    </g>
    <g id="text_9">
     <!-- −1 -->
     <g transform="translate(245.740836 106.615424)scale(0.1 -0.1)">
      <use xlink:href="#DejaVuSans-2212"/>
      <use x="83.789062" xlink:href="#DejaVuSans-31"/>
     </g>
    </g>
   </g>
   <g id="xtick_8">
    <g id="line2d_11">
     <path d="M 233.645664 69.777091 
L 236.638804 70.221578 
" style="fill:none;stroke:#000000;stroke-linecap:square;stroke-width:0.8;"/>
    </g>
    <g id="text_10">
     <!-- 0 -->
     <g transform="translate(252.711018 75.982787)scale(0.1 -0.1)">
      <use xlink:href="#DejaVuSans-30"/>
     </g>
    </g>
   </g>
   <g id="xtick_9">
    <g id="line2d_12">
     <path d="M 236.014986 37.530153 
L 239.086238 37.950623 
" style="fill:none;stroke:#000000;stroke-linecap:square;stroke-width:0.8;"/>
    </g>
    <g id="text_11">
     <!-- 1 -->
     <g transform="translate(255.631033 43.811251)scale(0.1 -0.1)">
      <use xlink:href="#DejaVuSans-31"/>
     </g>
    </g>
   </g>
  </g>
  <g id="axes_1">
   <g id="Line3DCollection_4">
    <path clip-path="url(#p92595de308)" d="M 54.133789 83.013765 
L 56.139919 77.877046 
L 58.168328 73.018701 
L 60.21769 68.442641 
L 62.286647 64.152404 
L 64.373813 60.151146 
L 66.477777 56.441634 
L 68.597104 53.026238 
L 70.730341 49.906927 
L 72.876017 47.085267 
L 75.032652 44.562414 
L 77.198755 42.339118 
L 79.372827 40.415722 
L 81.55337 38.792162 
L 83.738887 37.467973 
L 85.927882 36.44229 
L 88.118869 35.713859 
L 90.310374 35.281039 
L 92.500935 35.141811 
L 94.689107 35.293791 
L 96.873466 35.734237 
L 99.052611 36.460061 
L 101.225166 37.467842 
L 103.389782 38.753839 
L 105.545142 40.314003 
L 107.689962 42.143996 
L 109.822991 44.239201 
L 111.943017 46.594743 
L 114.048865 49.205501 
L 116.1394 52.066124 
L 118.213531 55.171053 
" style="fill:none;stroke:#1f77b4;stroke-width:1.5;"/>
    <path clip-path="url(#p92595de308)" d="M 61.646625 92.119798 
L 63.65267 87.010529 
L 65.679222 82.176611 
L 67.724956 77.621918 
L 69.788521 73.349956 
L 71.868537 69.363853 
L 73.963603 65.666357 
L 76.072295 62.259822 
L 78.193176 59.146208 
L 80.324791 56.327075 
L 82.46568 53.803584 
L 84.614371 51.576492 
L 86.769392 49.646154 
L 88.929268 48.012527 
L 91.09253 46.675169 
L 93.257713 45.633247 
L 95.423361 44.885539 
L 97.588033 44.430447 
L 99.750301 44.265997 
L 101.908758 44.389854 
L 104.062017 44.799331 
L 106.208714 45.491399 
L 108.347515 46.462699 
L 110.47711 47.709557 
L 112.596226 49.227995 
L 114.70362 51.013747 
L 116.798086 53.062274 
L 118.878454 55.368778 
L 120.943595 57.928221 
L 122.992419 60.735335 
L 125.023878 63.784647 
" style="fill:none;stroke:#1f77b4;stroke-width:1.5;"/>
    <path clip-path="url(#p92595de308)" d="M 69.041795 100.041427 
L 71.049442 94.953716 
L 73.075882 90.138857 
L 75.119791 85.600694 
L 77.17982 81.342708 
L 79.254594 77.36801 
L 81.342717 73.679329 
L 83.442778 70.279009 
L 85.553348 67.169004 
L 87.672989 64.350872 
L 89.800255 61.825776 
L 91.933694 59.59448 
L 94.071854 57.657352 
L 96.213282 56.014365 
L 98.356534 54.665097 
L 100.50017 53.60874 
L 102.642764 52.844103 
L 104.782905 52.369619 
L 106.919195 52.183353 
L 109.050261 52.283009 
L 111.17475 52.665947 
L 113.291334 53.329183 
L 115.398714 54.269412 
L 117.495623 55.483013 
L 119.580822 56.966064 
L 121.653111 58.714361 
L 123.711322 60.723425 
L 125.75433 62.988523 
L 127.781044 65.504683 
L 129.790419 68.266705 
L 131.781449 71.269186 
" style="fill:none;stroke:#1f77b4;stroke-width:1.5;"/>
    <path clip-path="url(#p92595de308)" d="M 76.340106 106.809598 
L 78.351052 101.737687 
L 80.379127 96.936635 
L 82.423004 92.410265 
L 84.481334 88.162041 
L 86.552745 84.195059 
L 88.635845 80.512037 
L 90.729228 77.115313 
L 92.831477 74.006837 
L 94.941164 71.188167 
L 97.056856 68.660469 
L 99.177117 66.424515 
L 101.300512 64.480683 
L 103.425609 62.828958 
L 105.550983 61.468936 
L 107.675221 60.399831 
L 109.79692 59.620473 
L 111.914695 59.129323 
L 114.027179 58.924474 
L 116.133028 59.003666 
L 118.230921 59.36429 
L 120.319563 60.003402 
L 122.39769 60.917736 
L 124.464068 62.103713 
L 126.517497 63.557458 
L 128.556813 65.274811 
L 130.580887 67.251343 
L 132.588633 69.48237 
L 134.579001 71.962971 
L 136.550983 74.688 
L 138.503618 77.652106 
" style="fill:none;stroke:#1f77b4;stroke-width:1.5;"/>
    <path clip-path="url(#p92595de308)" d="M 83.561656 112.448787 
L 85.577618 107.387018 
L 87.609084 102.594606 
L 89.654723 98.075362 
L 91.713182 93.83274 
L 93.78309 89.869828 
L 95.863058 86.189338 
L 97.951683 82.793606 
L 100.047554 79.684579 
L 102.149252 76.863819 
L 104.255356 74.332495 
L 106.36444 72.091386 
L 108.475087 70.140878 
L 110.585879 68.480969 
L 112.695413 67.111268 
L 114.802294 66.031003 
L 116.905143 65.239025 
L 119.002599 64.733812 
L 121.093321 64.513482 
L 123.175992 64.575797 
L 125.24932 64.918175 
L 127.312043 65.537701 
L 129.362926 66.431136 
L 131.400769 67.594933 
L 133.424407 69.02525 
L 135.43271 70.71796 
L 137.424588 72.668669 
L 139.398988 74.872729 
L 141.3549 77.325258 
L 143.291356 80.021146 
L 145.207431 82.955082 
" style="fill:none;stroke:#1f77b4;stroke-width:1.5;"/>
    <path clip-path="url(#p92595de308)" d="M 90.726022 116.977284 
L 92.748743 111.920057 
L 94.785375 107.13117 
L 96.834578 102.614427 
L 98.894996 98.37328 
L 100.965254 94.410814 
L 103.043963 90.729742 
L 105.129723 87.332399 
L 107.221125 84.220736 
L 109.316757 81.396316 
L 111.415205 78.860316 
L 113.515055 76.613519 
L 115.6149 74.65632 
L 117.713339 72.988724 
L 119.808983 71.610353 
L 121.900456 70.520445 
L 123.9864 69.717864 
L 126.065474 69.201102 
L 128.136362 68.968291 
L 130.197772 69.017211 
L 132.248438 69.345295 
L 134.287126 69.949646 
L 136.312633 70.827047 
L 138.323788 71.973968 
L 140.319459 73.386589 
L 142.298549 75.060803 
L 144.260003 76.99224 
L 146.202803 79.176274 
L 148.125975 81.608045 
L 150.028589 84.282469 
L 151.909757 87.194258 
" style="fill:none;stroke:#1f77b4;stroke-width:1.5;"/>
    <path clip-path="url(#p92595de308)" d="M 97.852434 120.407381 
L 99.883695 115.349123 
L 101.927294 110.558663 
L 103.981884 106.039811 
L 106.0461 101.796019 
L 108.118564 97.830379 
L 110.197881 94.145606 
L 112.282653 90.744042 
L 114.371471 87.627641 
L 116.462927 84.797973 
L 118.555611 82.25622 
L 120.648119 80.003172 
L 122.739052 78.039229 
L 124.827022 76.364404 
L 126.910653 74.978325 
L 128.988586 73.880239 
L 131.059478 73.069014 
L 133.12201 72.543154 
L 135.174887 72.300797 
L 137.216839 72.33973 
L 139.246627 72.657396 
L 141.263041 73.250906 
L 143.264906 74.117051 
L 145.251081 75.252312 
L 147.220464 76.652876 
L 149.171991 78.314647 
L 151.104637 80.233261 
L 153.017421 82.404106 
L 154.909403 84.822328 
L 156.779688 87.482853 
L 158.627425 90.380404 
" style="fill:none;stroke:#1f77b4;stroke-width:1.5;"/>
    <path clip-path="url(#p92595de308)" d="M 104.959949 122.745487 
L 107.001576 117.680612 
L 109.053982 112.883471 
L 111.11581 108.357882 
L 113.185685 104.107311 
L 115.26222 100.134858 
L 117.344017 96.443248 
L 119.429672 93.034831 
L 121.517777 89.91157 
L 123.606924 87.075042 
L 125.695706 84.526435 
L 127.782725 82.266545 
L 129.866588 80.295779 
L 131.945918 78.614153 
L 134.019348 77.2213 
L 136.085535 76.116467 
L 138.14315 75.298528 
L 140.190893 74.765986 
L 142.227487 74.516981 
L 144.251683 74.549301 
L 146.262265 74.860388 
L 148.258047 75.447353 
L 150.237881 76.306983 
L 152.200654 77.435759 
L 154.145292 78.829865 
L 156.070761 80.485201 
L 157.976069 82.397402 
L 159.860267 84.561849 
L 161.722449 86.973686 
L 163.561754 89.627835 
L 165.377367 92.519012 
" style="fill:none;stroke:#1f77b4;stroke-width:1.5;"/>
    <path clip-path="url(#p92595de308)" d="M 112.067624 123.992157 
L 114.121497 118.915034 
L 116.184598 114.106056 
L 118.255554 109.569064 
L 120.332979 105.307539 
L 122.415474 101.324596 
L 124.501635 97.622977 
L 126.59005 94.205043 
L 128.679309 91.07277 
L 130.768002 88.227742 
L 132.854722 85.671156 
L 134.938074 83.403814 
L 137.016672 81.426125 
L 139.089142 79.73811 
L 141.15413 78.3394 
L 143.210302 77.229243 
L 145.256344 76.40651 
L 147.29097 75.869698 
L 149.312921 75.616943 
L 151.320968 75.646022 
L 153.313915 75.954371 
L 155.290599 76.539089 
L 157.249897 77.396953 
L 159.190722 78.524428 
L 161.112027 79.917686 
L 163.012808 81.57261 
L 164.892104 83.484821 
L 166.748997 85.64968 
L 168.582613 88.062315 
L 170.392128 90.717629 
L 172.17676 93.610317 
" style="fill:none;stroke:#1f77b4;stroke-width:1.5;"/>
    <path clip-path="url(#p92595de308)" d="M 119.194682 124.142048 
L 121.262751 119.046961 
L 123.338492 114.220916 
L 125.420516 109.667781 
L 127.507422 105.391061 
L 129.597799 101.393896 
L 131.690231 97.679044 
L 133.783298 94.248885 
L 135.875585 91.105408 
L 137.965675 88.25021 
L 140.052162 85.684495 
L 142.13365 83.409071 
L 144.208756 81.424351 
L 146.276111 79.730354 
L 148.334368 78.326711 
L 150.382201 77.212662 
L 152.418309 76.38707 
L 154.44142 75.848423 
L 156.450288 75.594842 
L 158.443704 75.62409 
L 160.42049 75.933584 
L 162.379507 76.520402 
L 164.319652 77.381299 
L 166.239864 78.512717 
L 168.139124 79.9108 
L 170.016455 81.571405 
L 171.870926 83.490121 
L 173.701649 85.66228 
L 175.507786 88.082978 
L 177.288542 90.747083 
L 179.043173 93.649259 
" style="fill:none;stroke:#1f77b4;stroke-width:1.5;"/>
    <path clip-path="url(#p92595de308)" d="M 126.360695 123.18379 
L 128.444986 118.064903 
L 130.535383 113.216449 
L 132.630476 108.64233 
L 134.728848 104.346086 
L 136.829071 100.330883 
L 138.929715 96.599507 
L 141.029352 93.154356 
L 143.126555 89.997438 
L 145.219902 87.130364 
L 147.307982 84.554346 
L 149.389397 82.270198 
L 151.462764 80.278336 
L 153.526717 78.578775 
L 155.579915 77.17114 
L 157.621038 76.054662 
L 159.648796 75.228191 
L 161.661926 74.690196 
L 163.659198 74.438777 
L 165.639419 74.471675 
L 167.601428 74.786278 
L 169.544107 75.379635 
L 171.466375 76.248467 
L 173.367196 77.38918 
L 175.245576 78.797879 
L 177.100565 80.470382 
L 178.931261 82.402233 
L 180.736809 84.588721 
L 182.5164 87.024894 
L 184.269275 89.705572 
L 185.994723 92.62537 
" style="fill:none;stroke:#1f77b4;stroke-width:1.5;"/>
    <path clip-path="url(#p92595de308)" d="M 133.585763 121.099775 
L 135.688394 115.951091 
L 137.795545 111.074737 
L 139.905782 106.474663 
L 142.017668 102.154447 
L 144.129756 98.117291 
L 146.240601 94.36601 
L 148.34876 90.903031 
L 150.452794 87.730379 
L 152.551274 84.849682 
L 154.64278 82.262164 
L 156.72591 79.968642 
L 158.799279 77.969533 
L 160.861523 76.264849 
L 162.911302 74.854203 
L 164.947302 73.736813 
L 166.96824 72.911508 
L 168.972864 72.376735 
L 170.959958 72.130565 
L 172.92834 72.170706 
L 174.876869 72.494508 
L 176.804445 73.098981 
L 178.710008 73.9808 
L 180.592546 75.136324 
L 182.451089 76.561606 
L 184.284715 78.25241 
L 186.092552 80.204223 
L 187.873772 82.412275 
L 189.627602 84.871551 
L 191.353314 87.576809 
L 193.050234 90.522597 
" style="fill:none;stroke:#1f77b4;stroke-width:1.5;"/>
    <path clip-path="url(#p92595de308)" d="M 140.890712 117.865856 
L 143.013908 112.681172 
L 145.140006 107.771245 
L 147.26755 103.140077 
L 149.395074 98.791295 
L 151.521114 94.728143 
L 153.644205 90.953473 
L 155.762886 87.469741 
L 157.875704 84.278998 
L 159.981218 81.382888 
L 162.077999 78.782647 
L 164.164638 76.479098 
L 166.239746 74.472657 
L 168.301957 72.763327 
L 170.349932 71.350708 
L 172.382361 70.234001 
L 174.397966 69.412007 
L 176.395504 68.883142 
L 178.373769 68.645442 
L 180.331595 68.696571 
L 182.267855 69.033834 
L 184.181467 69.654188 
L 186.071394 70.554251 
L 187.936643 71.730323 
L 189.776272 73.17839 
L 191.589385 74.894149 
L 193.375137 76.873016 
L 195.132734 79.110144 
L 196.861432 81.600442 
L 198.56054 84.338588 
L 200.229416 87.319047 
" style="fill:none;stroke:#1f77b4;stroke-width:1.5;"/>
    <path clip-path="url(#p92595de308)" d="M 148.297308 113.45094 
L 150.443414 108.223805 
L 152.590766 103.274404 
L 154.737878 98.606802 
L 156.883258 94.224683 
L 159.025417 90.13134 
L 161.162868 86.329669 
L 163.294129 82.822159 
L 165.417731 79.610891 
L 167.532218 76.697529 
L 169.636149 74.08332 
L 171.728106 71.769093 
L 173.806693 69.755261 
L 175.870539 68.041817 
L 177.918306 66.628344 
L 179.948684 65.514017 
L 181.960401 64.697607 
L 183.952221 64.17749 
L 185.922946 63.951657 
L 187.871423 64.01772 
L 189.796542 64.372926 
L 191.697236 65.014168 
L 193.572489 65.937997 
L 195.421331 67.140635 
L 197.242844 68.617993 
L 199.036159 70.365682 
L 200.800461 72.379031 
L 202.534985 74.653103 
L 204.239022 77.182711 
L 205.911914 79.962436 
L 207.553058 82.986644 
" style="fill:none;stroke:#1f77b4;stroke-width:1.5;"/>
    <path clip-path="url(#p92595de308)" d="M 155.828489 107.816478 
L 157.999989 102.54014 
L 160.171028 97.545093 
L 162.340088 92.835474 
L 164.505647 88.415035 
L 166.666187 84.287127 
L 168.820195 80.454693 
L 170.966167 76.920264 
L 173.102613 73.685952 
L 175.228059 70.753443 
L 177.34105 68.123999 
L 179.440157 65.798453 
L 181.523973 63.777212 
L 183.591123 62.060258 
L 185.640264 60.647152 
L 187.670087 59.537038 
L 189.679323 58.728647 
L 191.666741 58.22031 
L 193.631153 58.009962 
L 195.571417 58.095153 
L 197.486435 58.473062 
L 199.375161 59.140503 
L 201.236596 60.093946 
L 203.069794 61.329524 
L 204.873861 62.843053 
L 206.647955 64.630044 
L 208.391291 66.685723 
L 210.103136 69.005043 
L 211.782814 71.582706 
L 213.429704 74.413177 
L 215.043239 77.490704 
" style="fill:none;stroke:#1f77b4;stroke-width:1.5;"/>
    <path clip-path="url(#p92595de308)" d="M 163.508622 100.915821 
L 165.708158 95.583173 
L 167.905466 90.535985 
L 170.09899 85.778484 
L 172.287174 81.314494 
L 174.468467 77.147433 
L 176.641328 73.280302 
L 178.804226 69.715676 
L 180.955647 66.455703 
L 183.094098 63.502094 
L 185.218106 60.856125 
L 187.326225 58.518635 
L 189.41704 56.490024 
L 191.489166 54.770257 
L 193.541256 53.358869 
L 195.571999 52.254966 
L 197.580125 51.457234 
L 199.564411 50.963947 
L 201.523674 50.772975 
L 203.456785 50.881796 
L 205.362659 51.287504 
L 207.240265 51.986825 
L 209.088627 52.97613 
L 210.906819 54.251449 
L 212.693973 55.808487 
L 214.449276 57.642636 
L 216.171972 59.749001 
L 217.861362 62.122408 
L 219.516805 64.757427 
L 221.137716 67.648386 
L 222.72357 70.789397 
" style="fill:none;stroke:#1f77b4;stroke-width:1.5;"/>
    <path clip-path="url(#p92595de308)" d="M 54.133789 83.013765 
L 57.906249 87.717028 
L 61.646625 92.119798 
L 65.357599 96.226574 
L 69.041795 100.041427 
L 72.701787 103.568017 
L 76.340106 106.809598 
L 79.959242 109.769029 
L 83.561656 112.448787 
L 87.149779 114.850964 
L 90.726022 116.977284 
L 94.292779 118.829095 
L 97.852434 120.407381 
L 101.407365 121.712761 
L 104.959949 122.745487 
L 108.512571 123.505446 
L 112.067624 123.992157 
L 115.627517 124.204767 
L 119.194682 124.142048 
L 122.771578 123.802388 
L 126.360695 123.18379 
L 129.964565 122.283854 
L 133.585763 121.099775 
L 137.226916 119.628329 
L 140.890712 117.865856 
L 144.579901 115.808251 
L 148.297308 113.45094 
L 152.04584 110.78887 
L 155.828489 107.816478 
L 159.64835 104.527676 
L 163.508622 100.915821 
" style="fill:none;stroke:#1f77b4;stroke-width:1.5;"/>
    <path clip-path="url(#p92595de308)" d="M 58.168328 73.018701 
L 61.939387 77.749329 
L 65.679222 82.176611 
L 69.390511 86.305085 
L 73.075882 90.138857 
L 76.737909 93.681614 
L 80.379127 96.936635 
L 84.00203 99.906802 
L 87.609084 102.594606 
L 91.202726 105.002152 
L 94.785375 107.13117 
L 98.359433 108.983012 
L 101.927294 110.558663 
L 105.491347 111.858735 
L 109.053982 112.883471 
L 112.617596 113.632744 
L 116.184598 114.106056 
L 119.757414 114.302532 
L 123.338492 114.220916 
L 126.930311 113.859567 
L 130.535383 113.216449 
L 134.156261 112.289123 
L 137.795545 111.074737 
L 141.455888 109.570017 
L 145.140006 107.771245 
L 148.85068 105.674255 
L 152.590766 103.274404 
L 156.363205 100.566564 
L 160.171028 97.545093 
L 164.017368 94.203812 
L 167.905466 90.535985 
" style="fill:none;stroke:#1f77b4;stroke-width:1.5;"/>
    <path clip-path="url(#p92595de308)" d="M 62.286647 64.152404 
L 66.052737 68.904008 
L 69.788521 73.349956 
L 73.496675 77.494812 
L 77.17982 81.342708 
L 80.840529 84.897352 
L 84.481334 88.162041 
L 88.10473 91.13967 
L 91.713182 93.83274 
L 95.309131 96.243366 
L 98.894996 98.37328 
L 102.473187 100.223838 
L 106.0461 101.796019 
L 109.616134 103.090432 
L 113.185685 104.107311 
L 116.75716 104.846518 
L 120.332979 105.307539 
L 123.915579 105.489479 
L 127.507422 105.391061 
L 131.111002 105.010619 
L 134.728848 104.346086 
L 138.36353 103.394992 
L 142.017668 102.154447 
L 145.693937 100.621135 
L 149.395074 98.791295 
L 153.123887 96.660709 
L 156.883258 94.224683 
L 160.676157 91.478027 
L 164.505647 88.415035 
L 168.374893 85.029462 
L 172.287174 81.314494 
" style="fill:none;stroke:#1f77b4;stroke-width:1.5;"/>
    <path clip-path="url(#p92595de308)" d="M 66.477777 56.441634 
L 70.235355 61.207701 
L 73.963603 65.666357 
L 77.665186 69.822185 
L 81.342717 73.679329 
L 84.998762 77.241511 
L 88.635845 80.512037 
L 92.256456 83.493811 
L 95.863058 86.189338 
L 99.458087 88.600738 
L 103.043963 90.729742 
L 106.623095 92.577706 
L 110.197881 94.145606 
L 113.770721 95.434045 
L 117.344017 96.443248 
L 120.92018 97.173068 
L 124.501635 97.622977 
L 128.090828 97.792068 
L 131.690231 97.679044 
L 135.302346 97.28222 
L 138.929715 96.599507 
L 142.574922 95.628409 
L 146.240601 94.36601 
L 149.929444 92.808963 
L 153.644205 90.953473 
L 157.387711 88.795286 
L 161.162868 86.329669 
L 164.972666 83.551388 
L 168.820195 80.454693 
L 172.708646 77.033286 
L 176.641328 73.280302 
" style="fill:none;stroke:#1f77b4;stroke-width:1.5;"/>
    <path clip-path="url(#p92595de308)" d="M 70.730341 49.906927 
L 74.475909 54.680868 
L 78.193176 59.146208 
L 81.884789 63.307536 
L 85.553348 67.169004 
L 89.201406 70.734334 
L 92.831477 74.006837 
L 96.446042 76.989416 
L 100.047554 79.684579 
L 103.638444 82.094442 
L 107.221125 84.220736 
L 110.798002 86.064811 
L 114.371471 87.627641 
L 117.943929 88.90982 
L 121.517777 89.91157 
L 125.095428 90.632732 
L 128.679309 91.07277 
L 132.271869 91.230764 
L 135.875585 91.105408 
L 139.492964 90.695 
L 143.126555 89.997438 
L 146.77895 89.010209 
L 150.452794 87.730379 
L 154.15079 86.15458 
L 157.875704 84.278998 
L 161.630378 82.099354 
L 165.417731 79.610891 
L 169.240774 76.808351 
L 173.102613 73.685952 
L 177.006461 70.237369 
L 180.955647 66.455703 
" style="fill:none;stroke:#1f77b4;stroke-width:1.5;"/>
    <path clip-path="url(#p92595de308)" d="M 75.032652 44.562414 
L 78.762781 49.337608 
L 82.46568 53.803584 
L 86.143978 57.964925 
L 89.800255 61.825776 
L 93.437049 65.389856 
L 97.056856 68.660469 
L 100.662145 71.640515 
L 104.255356 74.332495 
L 107.838907 76.73852 
L 111.415205 78.860316 
L 114.986643 80.699227 
L 118.555611 82.25622 
L 122.1245 83.531885 
L 125.695706 84.526435 
L 129.271639 85.239707 
L 132.854722 85.671156 
L 136.447405 85.819857 
L 140.052162 85.684495 
L 143.671505 85.263361 
L 147.307982 84.554346 
L 150.964191 83.554928 
L 154.64278 82.262164 
L 158.346458 80.672678 
L 162.077999 78.782647 
L 165.840253 76.587783 
L 169.636149 74.08332 
L 173.468709 71.263988 
L 177.34105 68.123999 
L 181.256401 64.657014 
L 185.218106 60.856125 
" style="fill:none;stroke:#1f77b4;stroke-width:1.5;"/>
    <path clip-path="url(#p92595de308)" d="M 79.372827 40.415722 
L 83.084169 45.185572 
L 86.769392 49.646154 
L 90.431101 53.802038 
L 94.071854 57.657352 
L 97.694164 61.215803 
L 101.300512 64.480683 
L 104.893345 67.454877 
L 108.475087 70.140878 
L 112.048142 72.540787 
L 115.6149 74.65632 
L 119.177744 76.488814 
L 122.739052 78.039229 
L 126.301204 79.308148 
L 129.866588 80.295779 
L 133.437605 81.001954 
L 137.016672 81.426125 
L 140.606231 81.567363 
L 144.208756 81.424351 
L 147.82675 80.995379 
L 151.462764 80.278336 
L 155.119391 79.270701 
L 158.799279 77.969533 
L 162.505139 76.371459 
L 166.239746 74.472657 
L 170.005953 72.268845 
L 173.806693 69.755261 
L 177.644991 66.926644 
L 181.523973 63.777212 
L 185.446872 60.300638 
L 189.41704 56.490024 
" style="fill:none;stroke:#1f77b4;stroke-width:1.5;"/>
    <path clip-path="url(#p92595de308)" d="M 83.738887 37.467973 
L 87.428195 42.225945 
L 91.09253 46.675169 
L 94.734466 50.820184 
L 98.356534 54.665097 
L 101.961221 58.213591 
L 105.550983 61.468936 
L 109.128246 64.434004 
L 112.695413 67.111268 
L 116.254868 69.502816 
L 119.808983 71.610353 
L 123.360124 73.435206 
L 126.910653 74.978325 
L 130.462937 76.240289 
L 134.019348 77.2213 
L 137.582277 77.921186 
L 141.15413 78.3394 
L 144.73734 78.475013 
L 148.334368 78.326711 
L 151.947713 77.892788 
L 155.579915 77.17114 
L 159.233564 76.159255 
L 162.911302 74.854203 
L 166.615834 73.252622 
L 170.349932 71.350708 
L 174.116445 69.144196 
L 177.918306 66.628344 
L 181.758538 63.797915 
L 185.640264 60.647152 
L 189.566719 57.169759 
L 193.541256 53.358869 
" style="fill:none;stroke:#1f77b4;stroke-width:1.5;"/>
    <path clip-path="url(#p92595de308)" d="M 88.118869 35.713859 
L 91.783017 40.453536 
L 95.423361 44.885539 
L 99.042444 49.014371 
L 102.642764 52.844103 
L 106.226781 56.378389 
L 109.79692 59.620473 
L 113.355581 62.5732 
L 116.905143 65.239025 
L 120.447965 67.620016 
L 123.9864 69.717864 
L 127.522789 71.533883 
L 131.059478 73.069014 
L 134.598812 74.32383 
L 138.14315 75.298528 
L 141.694864 75.992937 
L 145.256344 76.40651 
L 148.83001 76.538323 
L 152.418309 76.38707 
L 156.023729 75.951056 
L 159.648796 75.228191 
L 163.296089 74.215978 
L 166.96824 72.911508 
L 170.667945 71.311444 
L 174.397966 69.412007 
L 178.161143 67.208963 
L 181.960401 64.697607 
L 185.798756 61.872739 
L 189.679323 58.728647 
L 193.605331 55.259082 
L 197.580125 51.457234 
" style="fill:none;stroke:#1f77b4;stroke-width:1.5;"/>
    <path clip-path="url(#p92595de308)" d="M 92.500935 35.141811 
L 96.136924 39.856932 
L 99.750301 44.265997 
L 103.343571 48.373461 
L 106.919195 52.183353 
L 110.4796 55.699287 
L 114.027179 58.924474 
L 117.564303 61.86173 
L 121.093321 64.513482 
L 124.616566 66.881779 
L 128.136362 68.968291 
L 131.655029 70.77432 
L 135.174887 72.300797 
L 138.698261 73.548285 
L 142.227487 74.516981 
L 145.764916 75.206715 
L 149.312921 75.616943 
L 152.873902 75.74675 
L 156.450288 75.594842 
L 160.04455 75.159541 
L 163.659198 74.438777 
L 167.296795 73.430079 
L 170.959958 72.130565 
L 174.651366 70.536933 
L 178.373769 68.645442 
L 182.129993 66.451902 
L 185.922946 63.951657 
L 189.755632 61.13956 
L 193.631153 58.009962 
L 197.552723 54.55668 
L 201.523674 50.772975 
" style="fill:none;stroke:#1f77b4;stroke-width:1.5;"/>
    <path clip-path="url(#p92595de308)" d="M 96.873466 35.734237 
L 100.478446 40.41874 
L 104.062017 44.799331 
L 107.626644 48.880407 
L 111.17475 52.665947 
L 114.708722 56.159517 
L 118.230921 59.36429 
L 121.743681 62.283043 
L 125.24932 64.918175 
L 128.750141 67.271709 
L 132.248438 69.345295 
L 135.746502 71.140217 
L 139.246627 72.657396 
L 142.751111 73.897388 
L 146.262265 74.860388 
L 149.782416 75.546227 
L 153.313915 75.954371 
L 156.859136 76.083916 
L 160.42049 75.933584 
L 164.000424 75.501719 
L 167.601428 74.786278 
L 171.226044 73.784822 
L 174.876869 72.494508 
L 178.556563 70.912076 
L 182.267855 69.033834 
L 186.013551 66.85565 
L 189.796542 64.372926 
L 193.619809 61.580588 
L 197.486435 58.473062 
L 201.399615 55.044249 
L 205.362659 51.287504 
" style="fill:none;stroke:#1f77b4;stroke-width:1.5;"/>
    <path clip-path="url(#p92595de308)" d="M 101.225166 37.467842 
L 104.796438 42.115903 
L 108.347515 46.462699 
L 111.880813 50.512563 
L 115.398714 54.269412 
L 118.903567 57.736762 
L 122.39769 60.917736 
L 125.883382 63.815073 
L 129.362926 66.431136 
L 132.838588 68.767918 
L 136.312633 70.827047 
L 139.787318 72.609789 
L 143.264906 74.117051 
L 146.747666 75.349385 
L 150.237881 76.306983 
L 153.737851 76.989681 
L 157.249897 77.396953 
L 160.77637 77.527911 
L 164.319652 77.381299 
L 167.882165 76.955488 
L 171.466375 76.248467 
L 175.074799 75.257837 
L 178.710008 73.9808 
L 182.374638 72.414148 
L 186.071394 70.554251 
L 189.803056 68.397041 
L 193.572489 65.937997 
L 197.38265 63.172126 
L 201.236596 60.093946 
L 205.137494 56.697459 
L 209.088627 52.97613 
" style="fill:none;stroke:#1f77b4;stroke-width:1.5;"/>
    <path clip-path="url(#p92595de308)" d="M 105.545142 40.314003 
L 109.080176 44.920067 
L 112.596226 49.227995 
L 116.095663 53.242044 
L 119.580822 56.966064 
L 123.054007 60.403512 
L 126.517497 63.557458 
L 129.973549 66.430596 
L 133.424407 69.02525 
L 136.872302 71.34338 
L 140.319459 73.386589 
L 143.768104 75.156122 
L 147.220464 76.652876 
L 150.678777 77.877393 
L 154.145292 78.829865 
L 157.622278 79.510133 
L 161.112027 79.917686 
L 164.616858 80.051651 
L 168.139124 79.9108 
L 171.681217 79.493533 
L 175.245576 78.797879 
L 178.834685 77.821485 
L 182.451089 76.561606 
L 186.097393 75.015095 
L 189.776272 73.17839 
L 193.490478 71.047501 
L 197.242844 68.617993 
L 201.036297 65.88497 
L 204.873861 62.843053 
L 208.758669 59.486361 
L 212.693973 55.808487 
" style="fill:none;stroke:#1f77b4;stroke-width:1.5;"/>
    <path clip-path="url(#p92595de308)" d="M 109.822991 44.239201 
L 113.319427 48.798016 
L 116.798086 53.062274 
L 120.261289 57.036151 
L 123.711322 60.723425 
L 127.150444 64.127484 
L 130.580887 67.251343 
L 134.004868 70.097644 
L 137.424588 72.668669 
L 140.842237 74.966343 
L 144.260003 76.99224 
L 147.680072 78.747586 
L 151.104637 80.233261 
L 154.535898 81.449803 
L 157.976069 82.397402 
L 161.427386 83.075908 
L 164.892104 83.484821 
L 168.372511 83.623292 
L 171.870926 83.490121 
L 175.389708 83.083743 
L 178.931261 82.402233 
L 182.498039 81.443288 
L 186.092552 80.204223 
L 189.717371 78.681961 
L 193.375137 76.873016 
L 197.068568 74.773485 
L 200.800461 72.379031 
L 204.573706 69.684864 
L 208.391291 66.685723 
L 212.256309 63.375857 
L 216.171972 59.749001 
" style="fill:none;stroke:#1f77b4;stroke-width:1.5;"/>
    <path clip-path="url(#p92595de308)" d="M 114.048865 49.205501 
L 117.50452 53.712137 
L 120.943595 57.928221 
L 124.368358 61.857837 
L 127.781044 65.504683 
L 131.183863 68.872077 
L 134.579001 71.962971 
L 137.968627 74.779952 
L 141.3549 77.325258 
L 144.739968 79.600774 
L 148.125975 81.608045 
L 151.51507 83.348274 
L 154.909403 84.822328 
L 158.311137 86.030734 
L 161.722449 86.973686 
L 165.145534 87.651041 
L 168.582613 88.062315 
L 172.035936 88.206684 
L 175.507786 88.082978 
L 179.000485 87.689674 
L 182.5164 87.024894 
L 186.057948 86.086392 
L 189.627602 84.871551 
L 193.227896 83.377367 
L 196.861432 81.600442 
L 200.530888 79.536967 
L 204.239022 77.182711 
L 207.988683 74.533 
L 211.782814 71.582706 
L 215.624467 68.326218 
L 219.516805 64.757427 
" style="fill:none;stroke:#1f77b4;stroke-width:1.5;"/>
    <path clip-path="url(#p92595de308)" d="M 118.213531 55.171053 
L 121.626404 59.620929 
L 125.023878 63.784647 
L 128.408166 67.666195 
L 131.781449 71.269186 
L 135.145887 74.596862 
L 138.503618 77.652106 
L 141.856762 80.437451 
L 145.207431 82.955082 
L 148.557729 85.206847 
L 151.909757 87.194258 
L 155.265619 88.918493 
L 158.627425 90.380404 
L 161.997296 91.580512 
L 165.377367 92.519012 
L 168.769795 93.195769 
L 172.17676 93.610317 
L 175.600471 93.761859 
L 179.043173 93.649259 
L 182.507148 93.271038 
L 185.994723 92.62537 
L 189.508274 91.710072 
L 193.050234 90.522597 
L 196.623094 89.060025 
L 200.229416 87.319047 
L 203.871832 85.295959 
L 207.553058 82.986644 
L 211.275894 80.386556 
L 215.043239 77.490704 
L 218.858093 74.293632 
L 222.72357 70.789397 
" style="fill:none;stroke:#1f77b4;stroke-width:1.5;"/>
   </g>
   <g id="line2d_13">
    <defs>
     <path d="M -3 3 
L 3 -3 
M -3 -3 
L 3 3 
" id="mdaaa502540" style="stroke:#ff0000;"/>
    </defs>
    <g clip-path="url(#p92595de308)">
     <use style="fill:#ff0000;stroke:#ff0000;" x="139.643243" xlink:href="#mdaaa502540" y="76.813514"/>
    </g>
   </g>
  </g>
 </g>
 <defs>
  <clipPath id="p92595de308">
   <rect height="135.9" width="251.1" x="10.7" y="10.7"/>
  </clipPath>
 </defs>
</svg>
