<?xml version="1.0" encoding="utf-8" standalone="no"?>
<!DOCTYPE svg PUBLIC "-//W3C//DTD SVG 1.1//EN"
  "http://www.w3.org/Graphics/SVG/1.1/DTD/svg11.dtd">
<!-- Created with matplotlib (http://matplotlib.org/) -->
<svg height="184.15625pt" version="1.1" viewBox="0 0 248.620313 184.15625" width="248.620313pt" xmlns="http://www.w3.org/2000/svg" xmlns:xlink="http://www.w3.org/1999/xlink">
 <defs>
  <style type="text/css">
*{stroke-linecap:butt;stroke-linejoin:round;}
  </style>
 </defs>
 <g id="figure_1">
  <g id="patch_1">
   <path d="M 0 184.15625 
L 248.620313 184.15625 
L 248.620313 -0 
L 0 -0 
z
" style="fill:none;"/>
  </g>
  <g id="axes_1">
   <g id="patch_2">
    <path d="M 42.620312 146.6 
L 237.920313 146.6 
L 237.920313 10.7 
L 42.620312 10.7 
z
" style="fill:#ffffff;"/>
   </g>
   <g id="matplotlib.axis_1">
    <g id="xtick_1">
     <g id="line2d_1">
      <defs>
       <path d="M 0 0 
L 0 3.5 
" id="md535de3003" style="stroke:#000000;stroke-width:0.8;"/>
      </defs>
      <g>
       <use style="stroke:#000000;stroke-width:0.8;" x="88.39375" xlink:href="#md535de3003" y="146.6"/>
      </g>
     </g>
     <g id="text_1">
      <!-- −4 -->
      <defs>
       <path d="M 10.59375 35.5 
L 73.1875 35.5 
L 73.1875 27.203125 
L 10.59375 27.203125 
z
" id="DejaVuSans-2212"/>
       <path d="M 37.796875 64.3125 
L 12.890625 25.390625 
L 37.796875 25.390625 
z
M 35.203125 72.90625 
L 47.609375 72.90625 
L 47.609375 25.390625 
L 58.015625 25.390625 
L 58.015625 17.1875 
L 47.609375 17.1875 
L 47.609375 0 
L 37.796875 0 
L 37.796875 17.1875 
L 4.890625 17.1875 
L 4.890625 26.703125 
z
" id="DejaVuSans-34"/>
      </defs>
      <g transform="translate(81.022656 161.198437)scale(0.1 -0.1)">
       <use xlink:href="#DejaVuSans-2212"/>
       <use x="83.789062" xlink:href="#DejaVuSans-34"/>
      </g>
     </g>
    </g>
    <g id="xtick_2">
     <g id="line2d_2">
      <g>
       <use style="stroke:#000000;stroke-width:0.8;" x="149.425" xlink:href="#md535de3003" y="146.6"/>
      </g>
     </g>
     <g id="text_2">
      <!-- −2 -->
      <defs>
       <path d="M 19.1875 8.296875 
L 53.609375 8.296875 
L 53.609375 0 
L 7.328125 0 
L 7.328125 8.296875 
Q 12.9375 14.109375 22.625 23.890625 
Q 32.328125 33.6875 34.8125 36.53125 
Q 39.546875 41.84375 41.421875 45.53125 
Q 43.3125 49.21875 43.3125 52.78125 
Q 43.3125 58.59375 39.234375 62.25 
Q 35.15625 65.921875 28.609375 65.921875 
Q 23.96875 65.921875 18.8125 64.3125 
Q 13.671875 62.703125 7.8125 59.421875 
L 7.8125 69.390625 
Q 13.765625 71.78125 18.9375 73 
Q 24.125 74.21875 28.421875 74.21875 
Q 39.75 74.21875 46.484375 68.546875 
Q 53.21875 62.890625 53.21875 53.421875 
Q 53.21875 48.921875 51.53125 44.890625 
Q 49.859375 40.875 45.40625 35.40625 
Q 44.1875 33.984375 37.640625 27.21875 
Q 31.109375 20.453125 19.1875 8.296875 
z
" id="DejaVuSans-32"/>
      </defs>
      <g transform="translate(142.053906 161.198437)scale(0.1 -0.1)">
       <use xlink:href="#DejaVuSans-2212"/>
       <use x="83.789062" xlink:href="#DejaVuSans-32"/>
      </g>
     </g>
    </g>
    <g id="xtick_3">
     <g id="line2d_3">
      <g>
       <use style="stroke:#000000;stroke-width:0.8;" x="210.45625" xlink:href="#md535de3003" y="146.6"/>
      </g>
     </g>
     <g id="text_3">
      <!-- 0 -->
      <defs>
       <path d="M 31.78125 66.40625 
Q 24.171875 66.40625 20.328125 58.90625 
Q 16.5 51.421875 16.5 36.375 
Q 16.5 21.390625 20.328125 13.890625 
Q 24.171875 6.390625 31.78125 6.390625 
Q 39.453125 6.390625 43.28125 13.890625 
Q 47.125 21.390625 47.125 36.375 
Q 47.125 51.421875 43.28125 58.90625 
Q 39.453125 66.40625 31.78125 66.40625 
z
M 31.78125 74.21875 
Q 44.046875 74.21875 50.515625 64.515625 
Q 56.984375 54.828125 56.984375 36.375 
Q 56.984375 17.96875 50.515625 8.265625 
Q 44.046875 -1.421875 31.78125 -1.421875 
Q 19.53125 -1.421875 13.0625 8.265625 
Q 6.59375 17.96875 6.59375 36.375 
Q 6.59375 54.828125 13.0625 64.515625 
Q 19.53125 74.21875 31.78125 74.21875 
z
" id="DejaVuSans-30"/>
      </defs>
      <g transform="translate(207.275 161.198437)scale(0.1 -0.1)">
       <use xlink:href="#DejaVuSans-30"/>
      </g>
     </g>
    </g>
    <g id="text_4">
     <!-- x1 -->
     <defs>
      <path d="M 54.890625 54.6875 
L 35.109375 28.078125 
L 55.90625 0 
L 45.3125 0 
L 29.390625 21.484375 
L 13.484375 0 
L 2.875 0 
L 24.125 28.609375 
L 4.6875 54.6875 
L 15.28125 54.6875 
L 29.78125 35.203125 
L 44.28125 54.6875 
z
" id="DejaVuSans-78"/>
      <path d="M 12.40625 8.296875 
L 28.515625 8.296875 
L 28.515625 63.921875 
L 10.984375 60.40625 
L 10.984375 69.390625 
L 28.421875 72.90625 
L 38.28125 72.90625 
L 38.28125 8.296875 
L 54.390625 8.296875 
L 54.390625 0 
L 12.40625 0 
z
" id="DejaVuSans-31"/>
     </defs>
     <g transform="translate(134.129687 174.876562)scale(0.1 -0.1)">
      <use xlink:href="#DejaVuSans-78"/>
      <use x="59.179688" xlink:href="#DejaVuSans-31"/>
     </g>
    </g>
   </g>
   <g id="matplotlib.axis_2">
    <g id="ytick_1">
     <g id="line2d_4">
      <defs>
       <path d="M 0 0 
L -3.5 0 
" id="m7c617d65b6" style="stroke:#000000;stroke-width:0.8;"/>
      </defs>
      <g>
       <use style="stroke:#000000;stroke-width:0.8;" x="42.620312" xlink:href="#m7c617d65b6" y="146.6"/>
      </g>
     </g>
     <g id="text_5">
      <!-- −3 -->
      <defs>
       <path d="M 40.578125 39.3125 
Q 47.65625 37.796875 51.625 33 
Q 55.609375 28.21875 55.609375 21.1875 
Q 55.609375 10.40625 48.1875 4.484375 
Q 40.765625 -1.421875 27.09375 -1.421875 
Q 22.515625 -1.421875 17.65625 -0.515625 
Q 12.796875 0.390625 7.625 2.203125 
L 7.625 11.71875 
Q 11.71875 9.328125 16.59375 8.109375 
Q 21.484375 6.890625 26.8125 6.890625 
Q 36.078125 6.890625 40.9375 10.546875 
Q 45.796875 14.203125 45.796875 21.1875 
Q 45.796875 27.640625 41.28125 31.265625 
Q 36.765625 34.90625 28.71875 34.90625 
L 20.21875 34.90625 
L 20.21875 43.015625 
L 29.109375 43.015625 
Q 36.375 43.015625 40.234375 45.921875 
Q 44.09375 48.828125 44.09375 54.296875 
Q 44.09375 59.90625 40.109375 62.90625 
Q 36.140625 65.921875 28.71875 65.921875 
Q 24.65625 65.921875 20.015625 65.03125 
Q 15.375 64.15625 9.8125 62.3125 
L 9.8125 71.09375 
Q 15.4375 72.65625 20.34375 73.4375 
Q 25.25 74.21875 29.59375 74.21875 
Q 40.828125 74.21875 47.359375 69.109375 
Q 53.90625 64.015625 53.90625 55.328125 
Q 53.90625 49.265625 50.4375 45.09375 
Q 46.96875 40.921875 40.578125 39.3125 
z
" id="DejaVuSans-33"/>
      </defs>
      <g transform="translate(20.878125 150.399219)scale(0.1 -0.1)">
       <use xlink:href="#DejaVuSans-2212"/>
       <use x="83.789062" xlink:href="#DejaVuSans-33"/>
      </g>
     </g>
    </g>
    <g id="ytick_2">
     <g id="line2d_5">
      <g>
       <use style="stroke:#000000;stroke-width:0.8;" x="42.620312" xlink:href="#m7c617d65b6" y="111.753846"/>
      </g>
     </g>
     <g id="text_6">
      <!-- −2 -->
      <g transform="translate(20.878125 115.553065)scale(0.1 -0.1)">
       <use xlink:href="#DejaVuSans-2212"/>
       <use x="83.789062" xlink:href="#DejaVuSans-32"/>
      </g>
     </g>
    </g>
    <g id="ytick_3">
     <g id="line2d_6">
      <g>
       <use style="stroke:#000000;stroke-width:0.8;" x="42.620312" xlink:href="#m7c617d65b6" y="76.907692"/>
      </g>
     </g>
     <g id="text_7">
      <!-- −1 -->
      <g transform="translate(20.878125 80.706911)scale(0.1 -0.1)">
       <use xlink:href="#DejaVuSans-2212"/>
       <use x="83.789062" xlink:href="#DejaVuSans-31"/>
      </g>
     </g>
    </g>
    <g id="ytick_4">
     <g id="line2d_7">
      <g>
       <use style="stroke:#000000;stroke-width:0.8;" x="42.620312" xlink:href="#m7c617d65b6" y="42.061538"/>
      </g>
     </g>
     <g id="text_8">
      <!-- 0 -->
      <g transform="translate(29.257812 45.860757)scale(0.1 -0.1)">
       <use xlink:href="#DejaVuSans-30"/>
      </g>
     </g>
    </g>
    <g id="text_9">
     <!-- x2 -->
     <g transform="translate(14.798437 84.790625)rotate(-90)scale(0.1 -0.1)">
      <use xlink:href="#DejaVuSans-78"/>
      <use x="59.179688" xlink:href="#DejaVuSans-32"/>
     </g>
    </g>
   </g>
   <g id="LineCollection_1">
    <path clip-path="url(#pa8b2a9e1ba)" d="M 237.920313 108.127963 
L 237.381801 108.269231 
L 234.86875 108.894675 
L 231.817188 109.564793 
L 228.765625 110.145562 
L 225.714063 110.636982 
L 222.6625 111.039053 
L 219.610938 111.351775 
L 216.559375 111.575148 
L 213.507813 111.709172 
L 210.45625 111.753846 
L 210.45625 111.753846 
L 210.45625 111.753846 
L 207.404688 111.709172 
L 204.353125 111.575148 
L 201.301563 111.351775 
L 198.25 111.039053 
L 195.198438 110.636982 
L 192.146875 110.145562 
L 189.095313 109.564793 
L 186.04375 108.894675 
L 183.530699 108.269231 
L 182.992188 108.127963 
L 179.940625 107.233264 
L 176.889063 106.244387 
L 173.8375 105.161331 
L 172.861 104.784615 
L 170.785938 103.938352 
L 167.734375 102.594286 
L 164.998491 101.3 
L 164.682813 101.141608 
L 161.63125 99.504895 
L 158.672159 97.815385 
L 158.579688 97.759181 
L 155.528125 95.79206 
L 153.383784 94.330769 
L 152.476563 93.669894 
L 149.425 91.32679 
L 148.829573 90.846154 
L 146.373438 88.716667 
L 144.88314 87.361538 
L 143.321875 85.828308 
L 141.423125 83.876923 
L 140.270313 82.58913 
L 138.387434 80.392308 
L 137.21875 78.898901 
L 135.724107 76.907692 
L 134.167188 74.615182 
L 133.389338 73.423077 
L 131.354963 69.938462 
L 131.115625 69.473846 
L 129.618632 66.453846 
L 128.121639 62.969231 
L 128.064063 62.810839 
L 126.89892 59.484615 
L 125.900227 56 
L 125.123466 52.515385 
L 125.0125 51.818462 
L 124.584211 49.030769 
L 124.262993 45.546154 
L 124.155921 42.061538 
L 124.262993 38.576923 
L 124.584211 35.092308 
L 125.0125 32.304615 
L 125.123466 31.607692 
L 125.900227 28.123077 
L 126.89892 24.638462 
L 128.064063 21.312238 
L 128.121639 21.153846 
L 129.618632 17.669231 
L 131.115625 14.649231 
L 131.354963 14.184615 
L 133.389338 10.7 
" style="fill:none;stroke:#1f77b4;stroke-width:1.5;"/>
   </g>
   <g id="LineCollection_2">
    <path clip-path="url(#pa8b2a9e1ba)" d="M 237.920313 138.078531 
L 234.86875 138.617063 
L 231.817188 139.092238 
L 228.765625 139.504056 
L 227.655966 139.630769 
L 225.714063 139.844737 
L 222.6625 140.119838 
L 219.610938 140.333806 
L 216.559375 140.48664 
L 213.507813 140.57834 
L 210.45625 140.608907 
L 207.404688 140.57834 
L 204.353125 140.48664 
L 201.301563 140.333806 
L 198.25 140.119838 
L 195.198438 139.844737 
L 193.256534 139.630769 
L 192.146875 139.504056 
L 189.095313 139.092238 
L 186.04375 138.617063 
L 182.992188 138.078531 
L 179.940625 137.476643 
L 176.889063 136.811399 
L 174.102853 136.146154 
L 173.8375 136.080406 
L 170.785938 135.258563 
L 167.734375 134.370972 
L 164.682813 133.417634 
L 162.41875 132.661538 
L 161.63125 132.388235 
L 158.579688 131.26086 
L 155.528125 130.065158 
L 153.383784 129.176923 
L 152.476563 128.785793 
L 149.425 127.399058 
L 146.373438 125.941209 
L 145.876672 125.692308 
L 143.321875 124.357774 
L 140.270313 122.689607 
L 139.426263 122.207692 
L 137.21875 120.891282 
L 134.167188 118.994103 
L 133.748346 118.723077 
L 131.115625 116.94025 
L 128.697406 115.238462 
L 128.064063 114.771013 
L 125.0125 112.433771 
L 124.155921 111.753846 
L 121.960938 109.922189 
L 120.047246 108.269231 
L 118.909375 107.233264 
L 116.308043 104.784615 
L 115.857813 104.336593 
L 112.903125 101.3 
L 112.80625 101.194406 
L 109.801635 97.815385 
L 109.754688 97.759181 
L 106.976399 94.330769 
L 106.703125 93.970292 
L 104.403397 90.846154 
L 103.651563 89.749145 
L 102.061312 87.361538 
L 100.6 84.992 
L 99.931164 83.876923 
L 98.008262 80.392308 
L 97.548438 79.47967 
L 96.287125 76.907692 
L 94.741 73.423077 
L 94.496875 72.808145 
L 93.387216 69.938462 
L 92.198295 66.453846 
L 91.445313 63.907396 
L 91.174921 62.969231 
L 90.325119 59.484615 
L 89.629826 56 
L 89.089043 52.515385 
L 88.702769 49.030769 
L 88.471005 45.546154 
L 88.39375 42.061538 
L 88.471005 38.576923 
L 88.702769 35.092308 
L 89.089043 31.607692 
L 89.629826 28.123077 
L 90.325119 24.638462 
L 91.174921 21.153846 
L 91.445313 20.21568 
L 92.198295 17.669231 
L 93.387216 14.184615 
L 94.496875 11.314932 
L 94.741 10.7 
" style="fill:none;stroke:#1f77b4;stroke-width:1.5;"/>
   </g>
   <g id="LineCollection_3">
    <path clip-path="url(#pa8b2a9e1ba)" d="M 135.724107 146.6 
L 134.167188 145.861734 
L 131.115625 144.355671 
L 128.697406 143.115385 
L 128.064063 142.77915 
L 125.0125 141.097976 
L 122.442763 139.630769 
L 121.960938 139.345664 
L 118.909375 137.476643 
L 116.808299 136.146154 
L 115.857813 135.521553 
L 112.80625 133.450508 
L 111.679519 132.661538 
L 109.754688 131.26086 
L 106.976399 129.176923 
L 106.703125 128.963579 
L 103.651563 126.510126 
L 102.663028 125.692308 
L 100.6 123.91293 
L 98.677098 122.207692 
L 97.548438 121.162308 
L 94.985125 118.723077 
L 94.496875 118.236852 
L 91.564205 115.238462 
L 91.445313 115.110976 
L 88.39375 111.753846 
L 88.39375 111.753846 
L 85.455208 108.269231 
L 85.342188 108.127963 
L 82.731815 104.784615 
L 82.290625 104.187253 
L 80.208382 101.3 
L 79.239063 99.874476 
L 77.871121 97.815385 
L 76.1875 95.117618 
L 75.707479 94.330769 
L 73.71882 90.846154 
L 73.135938 89.749145 
L 71.895192 87.361538 
L 70.21851 83.876923 
L 70.084375 83.573913 
L 68.70625 80.392308 
L 67.328125 76.907692 
L 67.032813 76.082389 
L 66.101283 73.423077 
L 65.009145 69.938462 
L 64.045493 66.453846 
L 63.98125 66.185799 
L 63.226224 62.969231 
L 62.534117 59.484615 
L 61.967848 56 
L 61.527416 52.515385 
L 61.212822 49.030769 
L 61.024066 45.546154 
L 60.961147 42.061538 
L 61.024066 38.576923 
L 61.212822 35.092308 
L 61.527416 31.607692 
L 61.967848 28.123077 
L 62.534117 24.638462 
L 63.226224 21.153846 
L 63.98125 17.937278 
L 64.045493 17.669231 
L 65.009145 14.184615 
L 66.101283 10.7 
" style="fill:none;stroke:#1f77b4;stroke-width:1.5;"/>
   </g>
   <g id="LineCollection_4">
    <path clip-path="url(#pa8b2a9e1ba)" d="M 96.287125 146.6 
L 94.496875 145.300652 
L 91.564205 143.115385 
L 91.445313 143.023684 
L 88.39375 140.608907 
L 87.188194 139.630769 
L 85.342188 138.078531 
L 83.099473 136.146154 
L 82.290625 135.422932 
L 79.274963 132.661538 
L 79.239063 132.627376 
L 76.1875 129.655204 
L 75.707479 129.176923 
L 73.135938 126.510126 
L 72.364663 125.692308 
L 70.084375 123.171522 
L 69.23125 122.207692 
L 67.032813 119.61359 
L 66.294013 118.723077 
L 63.98125 115.805725 
L 63.540818 115.238462 
L 60.961147 111.753846 
L 60.929688 111.709172 
L 58.55625 108.269231 
L 57.878125 107.233264 
L 56.307024 104.784615 
L 54.826563 102.345385 
L 54.204399 101.3 
L 52.249029 97.815385 
L 51.775 96.916129 
L 50.438125 94.330769 
L 48.7525 90.846154 
L 48.723438 90.781624 
L 47.211916 87.361538 
L 45.785952 83.876923 
L 45.671875 83.573913 
L 44.496044 80.392308 
L 43.320212 76.907692 
L 42.620313 74.615182 
" style="fill:none;stroke:#1f77b4;stroke-width:1.5;"/>
   </g>
   <g id="LineCollection_5">
    <path clip-path="url(#pa8b2a9e1ba)" d="M 67.328125 146.6 
L 67.032813 146.334224 
L 63.98125 143.528814 
L 63.540818 143.115385 
L 60.929688 140.57834 
L 59.974148 139.630769 
L 57.878125 137.476643 
L 56.609158 136.146154 
L 54.826563 134.206604 
L 53.434102 132.661538 
L 51.775 130.748416 
L 50.438125 129.176923 
L 48.723438 127.079042 
L 47.611186 125.692308 
L 45.671875 123.171522 
L 44.943979 122.207692 
L 42.620313 118.994103 
" style="fill:none;stroke:#1f77b4;stroke-width:1.5;"/>
   </g>
   <g id="LineCollection_6">
    <path clip-path="url(#pa8b2a9e1ba)" d="M 43.320212 146.6 
L 42.620313 145.861734 
" style="fill:none;stroke:#1f77b4;stroke-width:1.5;"/>
   </g>
   <g id="line2d_8">
    <path clip-path="url(#pa8b2a9e1ba)" d="M 57.878125 111.753846 
L 91.55724 82.976418 
L 110.102803 67.380905 
L 128.823974 59.948658 
L 145.586622 56.199962 
L 159.880945 53.134967 
L 169.159111 46.608197 
L 179.081601 47.96503 
L 185.723609 40.572872 
L 194.182116 34.824384 
L 195.619145 39.083405 
L 200.253811 38.683958 
L 201.595392 44.914269 
L 201.696323 48.209609 
L 202.422299 41.659778 
L 205.989438 40.092944 
L 208.822613 42.550756 
L 205.55412 44.333995 
L 205.931887 43.719281 
L 214.964794 48.564707 
L 215.314496 45.624749 
" style="fill:none;stroke:#ff7f0e;stroke-linecap:square;stroke-width:1.5;"/>
    <defs>
     <path d="M 0 3 
C 0.795609 3 1.55874 2.683901 2.12132 2.12132 
C 2.683901 1.55874 3 0.795609 3 0 
C 3 -0.795609 2.683901 -1.55874 2.12132 -2.12132 
C 1.55874 -2.683901 0.795609 -3 0 -3 
C -0.795609 -3 -1.55874 -2.683901 -2.12132 -2.12132 
C -2.683901 -1.55874 -3 -0.795609 -3 0 
C -3 0.795609 -2.683901 1.55874 -2.12132 2.12132 
C -1.55874 2.683901 -0.795609 3 0 3 
z
" id="mb77bdfbc5b" style="stroke:#ff7f0e;"/>
    </defs>
    <g clip-path="url(#pa8b2a9e1ba)">
     <use style="fill:#ff7f0e;stroke:#ff7f0e;" x="57.878125" xlink:href="#mb77bdfbc5b" y="111.753846"/>
     <use style="fill:#ff7f0e;stroke:#ff7f0e;" x="91.55724" xlink:href="#mb77bdfbc5b" y="82.976418"/>
     <use style="fill:#ff7f0e;stroke:#ff7f0e;" x="110.102803" xlink:href="#mb77bdfbc5b" y="67.380905"/>
     <use style="fill:#ff7f0e;stroke:#ff7f0e;" x="128.823974" xlink:href="#mb77bdfbc5b" y="59.948658"/>
     <use style="fill:#ff7f0e;stroke:#ff7f0e;" x="145.586622" xlink:href="#mb77bdfbc5b" y="56.199962"/>
     <use style="fill:#ff7f0e;stroke:#ff7f0e;" x="159.880945" xlink:href="#mb77bdfbc5b" y="53.134967"/>
     <use style="fill:#ff7f0e;stroke:#ff7f0e;" x="169.159111" xlink:href="#mb77bdfbc5b" y="46.608197"/>
     <use style="fill:#ff7f0e;stroke:#ff7f0e;" x="179.081601" xlink:href="#mb77bdfbc5b" y="47.96503"/>
     <use style="fill:#ff7f0e;stroke:#ff7f0e;" x="185.723609" xlink:href="#mb77bdfbc5b" y="40.572872"/>
     <use style="fill:#ff7f0e;stroke:#ff7f0e;" x="194.182116" xlink:href="#mb77bdfbc5b" y="34.824384"/>
     <use style="fill:#ff7f0e;stroke:#ff7f0e;" x="195.619145" xlink:href="#mb77bdfbc5b" y="39.083405"/>
     <use style="fill:#ff7f0e;stroke:#ff7f0e;" x="200.253811" xlink:href="#mb77bdfbc5b" y="38.683958"/>
     <use style="fill:#ff7f0e;stroke:#ff7f0e;" x="201.595392" xlink:href="#mb77bdfbc5b" y="44.914269"/>
     <use style="fill:#ff7f0e;stroke:#ff7f0e;" x="201.696323" xlink:href="#mb77bdfbc5b" y="48.209609"/>
     <use style="fill:#ff7f0e;stroke:#ff7f0e;" x="202.422299" xlink:href="#mb77bdfbc5b" y="41.659778"/>
     <use style="fill:#ff7f0e;stroke:#ff7f0e;" x="205.989438" xlink:href="#mb77bdfbc5b" y="40.092944"/>
     <use style="fill:#ff7f0e;stroke:#ff7f0e;" x="208.822613" xlink:href="#mb77bdfbc5b" y="42.550756"/>
     <use style="fill:#ff7f0e;stroke:#ff7f0e;" x="205.55412" xlink:href="#mb77bdfbc5b" y="44.333995"/>
     <use style="fill:#ff7f0e;stroke:#ff7f0e;" x="205.931887" xlink:href="#mb77bdfbc5b" y="43.719281"/>
     <use style="fill:#ff7f0e;stroke:#ff7f0e;" x="214.964794" xlink:href="#mb77bdfbc5b" y="48.564707"/>
     <use style="fill:#ff7f0e;stroke:#ff7f0e;" x="215.314496" xlink:href="#mb77bdfbc5b" y="45.624749"/>
    </g>
   </g>
   <g id="patch_3">
    <path d="M 42.620312 146.6 
L 42.620312 10.7 
" style="fill:none;stroke:#000000;stroke-linecap:square;stroke-linejoin:miter;stroke-width:0.8;"/>
   </g>
   <g id="patch_4">
    <path d="M 237.920313 146.6 
L 237.920313 10.7 
" style="fill:none;stroke:#000000;stroke-linecap:square;stroke-linejoin:miter;stroke-width:0.8;"/>
   </g>
   <g id="patch_5">
    <path d="M 42.620313 146.6 
L 237.920313 146.6 
" style="fill:none;stroke:#000000;stroke-linecap:square;stroke-linejoin:miter;stroke-width:0.8;"/>
   </g>
   <g id="patch_6">
    <path d="M 42.620313 10.7 
L 237.920313 10.7 
" style="fill:none;stroke:#000000;stroke-linecap:square;stroke-linejoin:miter;stroke-width:0.8;"/>
   </g>
  </g>
 </g>
 <defs>
  <clipPath id="pa8b2a9e1ba">
   <rect height="135.9" width="195.3" x="42.620312" y="10.7"/>
  </clipPath>
 </defs>
</svg>
